# xmcd
#
# Track frame offsets:
#	150
#	9500
#	20200
#	30329
#	42315
#	54100
#	65263
#	75738
#	86407
#	99756
#	109807
#	119713
#	132606
#	144868
#	154972
#	165903
#	179222
#	192025
#	203424
#	215678
#	226517
#	236202
#	247016
#	259648
#	272879
#
# Disc length: 3816 seconds
#
# Revision: 1
# Processed by: cddbd v1.5.2PL0 Copyright (c) Steve Scherf et al.
# Submitted via: audiograbber 1.83.01
#
DISCID=520ee619
DTITLE=Various Artist - 101 Northern Soul Anthems - Disc 3
DYEAR=2009
DGENRE=Northern Soul
TTITLE0=Ike and Tina Turner - Dust My Broom
TTITLE1=Larry Williams and Johnny Watson - Too Late
TTITLE2=Judy Street - What
TTITLE3=Epitome Of Sound - You Don't Love Me
TTITLE4=Jack Montgomery - Dearly Beloved
TTITLE5=Morris Chestnut - Too Darn Soulful
TTITLE6=Alexander Patton - A Lil' Lovin' Sometimes
TTITLE7=Bobby Sheen - Doctor Love
TTITLE8=Earl Wright Orchestra - Thumb A Ride
TTITLE9=Willie Mitchell - The Champion
TTITLE10=Benny Spellman - Fortune Teller
TTITLE11=Derek Martin - Breakaway
TTITLE12=Herbie Goins and The Nightimers - Number One In Your Heart
TTITLE13=Richard Temple - That Beatin' Rhythm
TTITLE14=The Fuzz - I'm So Glad
TTITLE15=Maxine Brown - One In A Million
TTITLE16=Fred Hughes - Baby Boy
TTITLE17=Lou Ragland - I Travel Alone
TTITLE18=Jerry Cook - I Hurt On The Other Side
TTITLE19=Carl Douglas - Serving A Sentence Of Life
TTITLE20=Danny Wagner and The Kindred Soul - I Lost A True LOve
TTITLE21=Spencer Wiggins - Let's talk It Over
TTITLE22=Roscoe Robinson - That's Enough
TTITLE23=Gene Chandler - Nothing Can Stop Me
TTITLE24=Gene McDaniels - Walk With A Winner
EXTD=
EXTT0=
EXTT1=
EXTT2=
EXTT3=
EXTT4=
EXTT5=
EXTT6=
EXTT7=
EXTT8=
EXTT9=
EXTT10=
EXTT11=
EXTT12=
EXTT13=
EXTT14=
EXTT15=
EXTT16=
EXTT17=
EXTT18=
EXTT19=
EXTT20=
EXTT21=
EXTT22=
EXTT23=
EXTT24=
PLAYORDER=
